<?xml version="1.0" encoding="UTF-8" standalone="no"?>
<!-- Created with Inkscape (http://www.inkscape.org/) -->

<svg
   width="512"
   height="512"
   viewBox="0 0 512 512"
   version="1.1"
   id="svg1"
   xml:space="preserve"
   inkscape:version="1.4.2 (f4327f4, 2025-05-13)"
   sodipodi:docname="logo.svg"
   inkscape:export-filename="logo_plain.svg"
   inkscape:export-xdpi="288"
   inkscape:export-ydpi="288"
   xmlns:inkscape="http://www.inkscape.org/namespaces/inkscape"
   xmlns:sodipodi="http://sodipodi.sourceforge.net/DTD/sodipodi-0.dtd"
   xmlns="http://www.w3.org/2000/svg"
   xmlns:svg="http://www.w3.org/2000/svg"><sodipodi:namedview
     id="namedview1"
     pagecolor="#ffffff"
     bordercolor="#666666"
     borderopacity="1.0"
     inkscape:showpageshadow="2"
     inkscape:pageopacity="0.0"
     inkscape:pagecheckerboard="true"
     inkscape:deskcolor="#d1d1d1"
     inkscape:document-units="px"
     inkscape:zoom="0.78808594"
     inkscape:cx="174.47336"
     inkscape:cy="231.57373"
     inkscape:window-width="1920"
     inkscape:window-height="1009"
     inkscape:window-x="1912"
     inkscape:window-y="-8"
     inkscape:window-maximized="1"
     inkscape:current-layer="g3"><inkscape:page
       x="0"
       y="0"
       width="512"
       height="512"
       id="page2"
       margin="0"
       bleed="0" /></sodipodi:namedview><defs
     id="defs1" /><g
     inkscape:label="Layer 1"
     inkscape:groupmode="layer"
     id="layer1"><g
       id="g3"
       transform="matrix(13.223077,0,0,13.223077,14.32714,94.133339)"
       style="fill:none;stroke:#000000;stroke-width:1.5"><circle
         style="display:none;fill:#ffffff;stroke:#ffffff;stroke-width:1.89063;stroke-dasharray:none"
         id="path5"
         cx="18.276598"
         cy="12.241225"
         r="17.393833" /><g
         id="g11"
         inkscape:label="House"
         transform="matrix(0.98598832,0,0,0.98598832,-0.39495338,0.17087469)"
         style="stroke-width:1.9175;stroke-dasharray:none"><path
           style="fill:#000080;stroke:#000080;stroke-width:25.3553;stroke-dasharray:none"
           d="m 86.77307,366.11263 c -3.077289,-1.33995 -2.880589,3.35439 -2.880589,-68.74662 v -64.98569 l 43.179949,-43.15474 c 24.34466,-24.33043 43.73169,-43.36036 44.4448,-43.62614 0.69567,-0.25927 1.80601,-0.34672 2.46743,-0.19433 0.81214,0.18711 15.29439,14.35096 44.60684,43.62615 l 43.40427,43.34909 v 65.18791 c 0,71.61632 0.1795,67.02324 -2.67706,68.50042 -1.16306,0.60145 -11.18529,0.67849 -86.24015,0.66297 -69.98827,-0.0145 -85.167101,-0.12334 -86.30549,-0.61902 z"
           id="path9"
           transform="matrix(0.07562536,0,0,0.07562536,-1.0834952,-7.1188679)" /><path
           stroke-linecap="round"
           stroke-linejoin="round"
           d="m 2.25,12.380998 8.954,-8.9549998 c 0.44,-0.439 1.152,-0.439 1.591,0 L 21.321363,11.952361 21.75,12.380998 m -17.25,-2.25 v 10.125 c 0,0.621 0.504,1.125 1.125,1.125 h 12.75 c 0.621,0 1.125,-0.504 1.125,-1.125 v -10.125 m -11.25,11.25 h 8.25"
           id="path1"
           sodipodi:nodetypes="ccscccssssccc"
           inkscape:label="Home"
           style="stroke:#000080;stroke-width:1.9175;stroke-dasharray:none" /></g><g
         style="fill:none;stroke:currentColor;stroke-width:2.1539;stroke-linecap:round;stroke-linejoin:round;stroke-dasharray:none"
         id="g2"
         transform="matrix(0.87777433,0,0,0.87777433,18.929735,1.7079331)"
         inkscape:label="Plug"><path
           d="M 12,22 V 17"
           id="path1-8"
           style="stroke-width:2.1539;stroke-dasharray:none" /><path
           d="M 9,8 V 2"
           id="path2"
           style="stroke-width:2.1539;stroke-dasharray:none" /><path
           d="M 15,8 V 2"
           id="path3"
           style="stroke-width:2.1539;stroke-dasharray:none" /><path
           d="m 18,8 v 5 a 4,4 0 0 1 -4,4 H 10 A 4,4 0 0 1 6,13 V 8 Z"
           id="path4"
           style="stroke-width:2.1539;stroke-dasharray:none" /></g></g></g></svg>
